<svg xmlns="http://www.w3.org/2000/svg" viewBox="0 0 255.11 170.28"><defs><style>.cls-1{fill:#2c3c78;}.cls-2,.cls-3{fill:none;stroke:#2c3c78;stroke-linecap:round;}.cls-2{stroke-linejoin:round;stroke-width:5.28px;}.cls-3{stroke-miterlimit:10;stroke-width:5.49px;}</style></defs><g id="Layer_2" data-name="Layer 2"><g id="Layer_1-2" data-name="Layer 1"><path class="cls-1" d="M0,136.55l2.19-4.33a16.29,16.29,0,0,0,8.47,2.42c3.6,0,5.1-1,5.1-2.69,0-4.65-15-.27-15-10,0-4.6,4.14-7.61,10.7-7.61a19.33,19.33,0,0,1,9.11,2.09l-2.18,4.33a13.31,13.31,0,0,0-7-1.82c-3.47,0-5.1,1.14-5.1,2.73,0,4.92,15,.55,15,10.07,0,4.55-4.19,7.51-11,7.51C6.24,139.28,2.19,138.1,0,136.55Z"></path><path class="cls-1" d="M65.93,125V139H60.24v-13.2c0-4.33-2-6.43-5.47-6.43-3.73,0-6.33,2.46-6.33,7.29V139H42.75v-13.2c0-4.33-2-6.43-5.47-6.43-3.78,0-6.33,2.46-6.33,7.29V139H25.26V114.64h5.42v3.1a10.05,10.05,0,0,1,8-3.37c3.55,0,6.51,1.32,8.2,4a11.34,11.34,0,0,1,9.11-4C61.83,114.37,65.93,117.69,65.93,125Z"></path><path class="cls-1" d="M70.86,107.22a3.47,3.47,0,0,1,3.64-3.42,3.38,3.38,0,0,1,3.64,3.28,3.64,3.64,0,0,1-7.28.14Zm.77,7.42h5.69V139H71.63Z"></path><path class="cls-1" d="M83.2,105.17h5.7V139H83.2Z"></path><path class="cls-1" d="M117.88,128.63H98.8c.68,3.55,3.64,5.83,7.88,5.83a8.7,8.7,0,0,0,6.6-2.65l3.06,3.51c-2.19,2.6-5.61,4-9.8,4-8.15,0-13.43-5.23-13.43-12.48s5.33-12.43,12.57-12.43,12.3,5,12.3,12.57C118,127.4,117.93,128.08,117.88,128.63Zm-19.13-3.78h13.81a6.63,6.63,0,0,0-6.88-5.93A6.73,6.73,0,0,0,98.75,124.85Z"></path><path class="cls-1" d="M149.17,114.37v5.42a7.33,7.33,0,0,0-1.32-.14c-4.33,0-7.06,2.55-7.06,7.52V139H135.1V114.64h5.42v3.55C142.16,115.64,145.12,114.37,149.17,114.37Z"></path><path class="cls-1" d="M175.42,128.63H156.33c.68,3.55,3.65,5.83,7.88,5.83a8.74,8.74,0,0,0,6.61-2.65l3.05,3.51c-2.19,2.6-5.61,4-9.8,4-8.15,0-13.43-5.23-13.43-12.48s5.33-12.43,12.57-12.43,12.3,5,12.3,12.57C175.51,127.4,175.46,128.08,175.42,128.63Zm-19.13-3.78h13.8a6.63,6.63,0,0,0-6.88-5.93A6.72,6.72,0,0,0,156.29,124.85Z"></path><path class="cls-1" d="M200,124.71V139h-5.37v-3c-1.37,2.1-4,3.28-7.65,3.28-5.56,0-9.07-3.05-9.07-7.28,0-4.06,2.74-7.25,10.11-7.25h6.29v-.36c0-3.33-2-5.28-6.06-5.28a12.06,12.06,0,0,0-7.38,2.41l-2.23-4.14a17.07,17.07,0,0,1,10.29-3C196,114.37,200,117.69,200,124.71Zm-5.69,6.65v-2.83h-5.88c-3.87,0-4.92,1.46-4.92,3.24,0,2,1.73,3.37,4.65,3.37S193.36,133.86,194.32,131.36Z"></path><path class="cls-1" d="M203.94,126.8c0-7.28,5.47-12.43,13.17-12.43,4.73,0,8.51,2,10.38,5.65l-4.37,2.55a6.87,6.87,0,0,0-6.06-3.37c-4.19,0-7.38,2.91-7.38,7.6s3.19,7.61,7.38,7.61a6.89,6.89,0,0,0,6.06-3.37l4.37,2.55c-1.87,3.64-5.65,5.69-10.38,5.69C209.41,139.28,203.94,134.09,203.94,126.8Z"></path><path class="cls-1" d="M255.11,125V139h-5.7v-13.2c0-4.33-2.14-6.43-5.78-6.43-4,0-6.79,2.46-6.79,7.34V139h-5.69V105.17h5.69v12.3a10.83,10.83,0,0,1,8.11-3.1C250.78,114.37,255.11,117.69,255.11,125Z"></path><path class="cls-1" d="M42.4,170l0-14.84L35,167.4H33.15l-7.36-12.09V170h-4V147.57h3.43l8.89,14.84,8.74-14.84H46.3l0,22.39Z"></path><path class="cls-1" d="M69.1,164.78H57.9L55.7,170H51.41l10.08-22.39h4.09L75.7,170H71.34Zm-1.37-3.26-4.23-9.79-4.19,9.79Z"></path><path class="cls-1" d="M95.38,170,90.8,163.4a6.19,6.19,0,0,1-.86,0H84.88V170H80.72V147.57h9.22c5.89,0,9.53,3,9.53,8a7.16,7.16,0,0,1-4.76,7.08L99.86,170Zm-5.63-18.87H84.88V160h4.87c3.64,0,5.53-1.66,5.53-4.48S93.39,151.09,89.75,151.09Z"></path><path class="cls-1" d="M114,160.59l-3.55,3.65V170h-4.16V147.57h4.16v11.48l11.07-11.48h4.67l-9.41,10,10,12.38h-4.86Z"></path><path class="cls-1" d="M148.54,166.48V170h-16.8V147.57h16.35v3.48H135.9v5.83h10.82v3.42H135.9v6.18Z"></path><path class="cls-1" d="M160.22,151.09H152.8v-3.52h19v3.52h-7.42V170h-4.16Z"></path><path class="cls-1" d="M177,147.57h4.16V170H177Z"></path><path class="cls-1" d="M209,147.57V170h-3.42L193.22,154.8V170H189.1V147.57h3.42l12.35,15.16V147.57Z"></path><path class="cls-1" d="M232.44,158.51h3.94v8.93a14.24,14.24,0,0,1-8.77,2.84c-7,0-12.07-4.83-12.07-11.51s5.12-11.52,12.13-11.52a11.55,11.55,0,0,1,9,3.64L234,153.45a8.32,8.32,0,0,0-6.18-2.56c-4.76,0-8.12,3.24-8.12,7.88a7.71,7.71,0,0,0,8.09,7.87,9.07,9.07,0,0,0,4.61-1.15Z"></path><polyline class="cls-2" points="143.48 32.78 158.18 29.94 159.09 42.77"></polyline><path class="cls-1" d="M145.58,99.23a8.94,8.94,0,0,1-3.68-.78,9.3,9.3,0,0,1-5.19-7.8l-.17-1.55c-.76-7.31-2.35-22.44-7.72-23.08-2.59.3-6,4.9-7.85,24.6a9.18,9.18,0,0,1-5.13,7.74,9.8,9.8,0,0,1-9.63-1C89.79,86,78.19,33.23,91.13,10.9c4.8-8.3,14.85-16.13,35.4-6.37a5.37,5.37,0,0,0,4.63,0c20.54-9.75,30.57-1.92,35.36,6.37,12.94,22.33,1.34,75.06-15.07,86.45A10.38,10.38,0,0,1,145.58,99.23ZM128.83,60.62H129c10,.64,11.76,17.05,12.9,27.91l.16,1.54a4,4,0,0,0,2.08,3.47,4.44,4.44,0,0,0,4.24-.62c13-9,25.59-58.43,13.48-79.33C156.53,4.4,147,3,133.47,9.4a10.71,10.71,0,0,1-9.25,0h0c-13.52-6.42-23.09-5-28.43,4.2S89.44,39.1,93,57.34c3.27,16.79,9.81,31.09,16.29,35.59a4.39,4.39,0,0,0,4.28.55,3.82,3.82,0,0,0,2-3.37c.89-9.39,2.73-28.93,13.08-29.48Z"></path><path class="cls-1" d="M140.4,17.63c-6,0-10.08-2.92-14-5.75a34.43,34.43,0,0,0-9.28-5.26,2.75,2.75,0,0,1-1.77-3.43,2.62,2.62,0,0,1,3.32-1.73,39.64,39.64,0,0,1,10.87,6c3.69,2.65,6.61,4.75,10.88,4.75a2.69,2.69,0,0,1,0,5.38Z"></path><path class="cls-3" d="M154,35c-6.91,8.11-16.08,13.08-25.85,13s-18.06-5.12-23.91-13.18"></path><path class="cls-3" d="M97.74,34s5.75,1.65,9.65-4.31"></path></g></g></svg>