<svg xmlns="http://www.w3.org/2000/svg" viewBox="70 -10 110 120"><defs><style>.cls-1{fill:#2c3c78;}.cls-2,.cls-3{fill:none;stroke:#2c3c78;stroke-linecap:round;}.cls-2{stroke-linejoin:round;stroke-width:5.28px;}.cls-3{stroke-miterlimit:10;stroke-width:5.49px;}</style></defs><polyline class="cls-2" points="143.48 32.78 158.18 29.94 159.09 42.77"></polyline><path class="cls-1" d="M145.58,99.23a8.94,8.94,0,0,1-3.68-.78,9.3,9.3,0,0,1-5.19-7.8l-.17-1.55c-.76-7.31-2.35-22.44-7.72-23.08-2.59.3-6,4.9-7.85,24.6a9.18,9.18,0,0,1-5.13,7.74,9.8,9.8,0,0,1-9.63-1C89.79,86,78.19,33.23,91.13,10.9c4.8-8.3,14.85-16.13,35.4-6.37a5.37,5.37,0,0,0,4.63,0c20.54-9.75,30.57-1.92,35.36,6.37,12.94,22.33,1.34,75.06-15.07,86.45A10.38,10.38,0,0,1,145.58,99.23ZM128.83,60.62H129c10,.64,11.76,17.05,12.9,27.91l.16,1.54a4,4,0,0,0,2.08,3.47,4.44,4.44,0,0,0,4.24-.62c13-9,25.59-58.43,13.48-79.33C156.53,4.4,147,3,133.47,9.4a10.71,10.71,0,0,1-9.25,0h0c-13.52-6.42-23.09-5-28.43,4.2S89.44,39.1,93,57.34c3.27,16.79,9.81,31.09,16.29,35.59a4.39,4.39,0,0,0,4.28.55,3.82,3.82,0,0,0,2-3.37c.89-9.39,2.73-28.93,13.08-29.48Z"></path><path class="cls-1" d="M140.4,17.63c-6,0-10.08-2.92-14-5.75a34.43,34.43,0,0,0-9.28-5.26,2.75,2.75,0,0,1-1.77-3.43,2.62,2.62,0,0,1,3.32-1.73,39.64,39.64,0,0,1,10.87,6c3.69,2.65,6.61,4.75,10.88,4.75a2.69,2.69,0,0,1,0,5.38Z"></path><path class="cls-3" d="M154,35c-6.91,8.11-16.08,13.08-25.85,13s-18.06-5.12-23.91-13.18"></path><path class="cls-3" d="M97.74,34s5.75,1.65,9.65-4.31"></path></svg>
